<svg xmlns="http://www.w3.org/2000/svg" width="980" height="980" viewBox="0 0 980 980">
  <rect width="980" height="980" fill="#ffffff"/>
  <text x="40" y="58" font-size="28" font-weight="800" fill="#0f172a">Six-slide variant output</text>
  <text x="40" y="88" font-size="15" fill="#475569">Chrome E2E 2026-05-22T18-55-56-288Z · stored storyboard, not final rendered creative assets</text>
  <g>
    <rect x="40" y="120" width="260" height="360" rx="18" fill="#f8fafc" stroke="#cbd5e1" stroke-width="2"/>
    <rect x="58" y="138" width="224" height="98" rx="14" fill="#0f172a"/>
    <text x="74" y="198" font-size="42" font-weight="800" fill="#ffffff">1</text>
    <text x="128" y="198" font-size="18" font-weight="700" fill="#cbd5e1">TikTok Carousel</text>
    <text x="70" y="290" font-size="22" font-weight="700" fill="#111827">Chrome E2E</text>
<text x="70" y="318" font-size="22" font-weight="700" fill="#111827">2026-05-22T18-55-56-288Z</text>
<text x="70" y="346" font-size="22" font-weight="700" fill="#111827">slide 1</text>
    <text x="70" y="440" font-size="14" fill="#64748b">Storyboard preview</text>
  </g>
<g>
    <rect x="340" y="120" width="260" height="360" rx="18" fill="#f8fafc" stroke="#cbd5e1" stroke-width="2"/>
    <rect x="358" y="138" width="224" height="98" rx="14" fill="#0f172a"/>
    <text x="374" y="198" font-size="42" font-weight="800" fill="#ffffff">2</text>
    <text x="428" y="198" font-size="18" font-weight="700" fill="#cbd5e1">TikTok Carousel</text>
    <text x="370" y="290" font-size="22" font-weight="700" fill="#111827">Chrome E2E</text>
<text x="370" y="318" font-size="22" font-weight="700" fill="#111827">2026-05-22T18-55-56-288Z</text>
<text x="370" y="346" font-size="22" font-weight="700" fill="#111827">slide 2</text>
    <text x="370" y="440" font-size="14" fill="#64748b">Storyboard preview</text>
  </g>
<g>
    <rect x="640" y="120" width="260" height="360" rx="18" fill="#f8fafc" stroke="#cbd5e1" stroke-width="2"/>
    <rect x="658" y="138" width="224" height="98" rx="14" fill="#0f172a"/>
    <text x="674" y="198" font-size="42" font-weight="800" fill="#ffffff">3</text>
    <text x="728" y="198" font-size="18" font-weight="700" fill="#cbd5e1">TikTok Carousel</text>
    <text x="670" y="290" font-size="22" font-weight="700" fill="#111827">Chrome E2E</text>
<text x="670" y="318" font-size="22" font-weight="700" fill="#111827">2026-05-22T18-55-56-288Z</text>
<text x="670" y="346" font-size="22" font-weight="700" fill="#111827">slide 3</text>
    <text x="670" y="440" font-size="14" fill="#64748b">Storyboard preview</text>
  </g>
<g>
    <rect x="40" y="540" width="260" height="360" rx="18" fill="#f8fafc" stroke="#cbd5e1" stroke-width="2"/>
    <rect x="58" y="558" width="224" height="98" rx="14" fill="#0f172a"/>
    <text x="74" y="618" font-size="42" font-weight="800" fill="#ffffff">4</text>
    <text x="128" y="618" font-size="18" font-weight="700" fill="#cbd5e1">TikTok Carousel</text>
    <text x="70" y="710" font-size="22" font-weight="700" fill="#111827">Chrome E2E</text>
<text x="70" y="738" font-size="22" font-weight="700" fill="#111827">2026-05-22T18-55-56-288Z</text>
<text x="70" y="766" font-size="22" font-weight="700" fill="#111827">slide 4</text>
    <text x="70" y="860" font-size="14" fill="#64748b">Storyboard preview</text>
  </g>
<g>
    <rect x="340" y="540" width="260" height="360" rx="18" fill="#f8fafc" stroke="#cbd5e1" stroke-width="2"/>
    <rect x="358" y="558" width="224" height="98" rx="14" fill="#0f172a"/>
    <text x="374" y="618" font-size="42" font-weight="800" fill="#ffffff">5</text>
    <text x="428" y="618" font-size="18" font-weight="700" fill="#cbd5e1">TikTok Carousel</text>
    <text x="370" y="710" font-size="22" font-weight="700" fill="#111827">Chrome E2E</text>
<text x="370" y="738" font-size="22" font-weight="700" fill="#111827">2026-05-22T18-55-56-288Z</text>
<text x="370" y="766" font-size="22" font-weight="700" fill="#111827">slide 5</text>
    <text x="370" y="860" font-size="14" fill="#64748b">Storyboard preview</text>
  </g>
<g>
    <rect x="640" y="540" width="260" height="360" rx="18" fill="#f8fafc" stroke="#cbd5e1" stroke-width="2"/>
    <rect x="658" y="558" width="224" height="98" rx="14" fill="#0f172a"/>
    <text x="674" y="618" font-size="42" font-weight="800" fill="#ffffff">6</text>
    <text x="728" y="618" font-size="18" font-weight="700" fill="#cbd5e1">TikTok Carousel</text>
    <text x="670" y="710" font-size="22" font-weight="700" fill="#111827">Chrome E2E</text>
<text x="670" y="738" font-size="22" font-weight="700" fill="#111827">2026-05-22T18-55-56-288Z</text>
<text x="670" y="766" font-size="22" font-weight="700" fill="#111827">slide 6</text>
    <text x="670" y="860" font-size="14" fill="#64748b">Storyboard preview</text>
  </g>
</svg>
